<svg xmlns="http://www.w3.org/2000/svg" width="50" height="100">
	<path
		d="
			M 25,25
			l 19,0
			a 5,5 0 0 1 5,5
			l 0,64
			a 5,5 0 0 1 -5,5
			l -38,0
			a 5,5 0 0 1 -5,-5
			l 0,-64
			a 5,5 0 0 1 5,-5
			z
		"
		stroke="white"
		fill="none"
	/>
	<path
		d="
			M 25,75
			l 21,0
			a 1,1 0 0 1 1,1
			l 0,17
			a 4,4 0 0 1 -4,4
			l -36,0
			a 4,4 0 0 1 -4,-4
			l 0,-17
			a 1,1 0 0 1 1,-1
			z
		"
		fill="lime"
	/>
	<path 
		d="
			M 25,51
			l 21,0
			a 1,1 0 0 1 1,1
			l 0,20
			a 1,1 0 0 1 -1,1
			l -42,0
			a 1,1 0 0 1 -1,-1
			l 0,-20
			a 1,1 0 0 1 1,-1
			z
		"
		fill="lime"
	/>
	<path 
		d="
			M 25,27
			l 18,0
			a 4,4 0 0 1 4,4
			l 0,17
			a 1,1 0 0 1 -1,1
			l -42,0
			a 1,1 0 0 1 -1,-1
			l 0,-17
			a 4,4 0 0 1 4,-4
			z
		"
		fill="lime"
	/>
</svg>